<mxfile host="app.diagrams.net" modified="2023-12-04T11:11:56.578Z" agent="Mozilla/5.0 (Windows NT 10.0; Win64; x64) AppleWebKit/537.36 (KHTML, like Gecko) Chrome/119.0.0.0 Safari/537.36" etag="5rd5ROSET7iasyTVSwp9" version="22.1.5" type="github" pages="2">
  <diagram name="Page-1" id="3-nFaqibFPNV-jcr7p1u">
    <mxGraphModel dx="880" dy="446" grid="1" gridSize="10" guides="1" tooltips="1" connect="1" arrows="1" fold="1" page="1" pageScale="1" pageWidth="850" pageHeight="1100" math="0" shadow="0">
      <root>
        <mxCell id="0" />
        <mxCell id="1" parent="0" />
        <mxCell id="AipJWibaRMQgxZIMEt8J-1" value="Admin" style="rounded=0;whiteSpace=wrap;html=1;" parent="1" vertex="1">
          <mxGeometry x="220" y="130" width="120" height="60" as="geometry" />
        </mxCell>
        <mxCell id="AipJWibaRMQgxZIMEt8J-2" value="User" style="rounded=0;whiteSpace=wrap;html=1;" parent="1" vertex="1">
          <mxGeometry x="220" y="210" width="120" height="60" as="geometry" />
        </mxCell>
        <mxCell id="AipJWibaRMQgxZIMEt8J-3" value="Mechanic" style="rounded=0;whiteSpace=wrap;html=1;" parent="1" vertex="1">
          <mxGeometry x="220" y="290" width="120" height="60" as="geometry" />
        </mxCell>
        <mxCell id="AipJWibaRMQgxZIMEt8J-4" value=".ORVBA" style="ellipse;whiteSpace=wrap;html=1;" parent="1" vertex="1">
          <mxGeometry x="440" y="200" width="120" height="80" as="geometry" />
        </mxCell>
        <mxCell id="AipJWibaRMQgxZIMEt8J-5" value="Assistance" style="rounded=0;whiteSpace=wrap;html=1;" parent="1" vertex="1">
          <mxGeometry x="640" y="210" width="120" height="60" as="geometry" />
        </mxCell>
        <mxCell id="AipJWibaRMQgxZIMEt8J-6" value="" style="endArrow=none;html=1;rounded=0;entryX=0.158;entryY=0;entryDx=0;entryDy=0;entryPerimeter=0;exitX=0.158;exitY=1.033;exitDx=0;exitDy=0;exitPerimeter=0;" parent="1" source="AipJWibaRMQgxZIMEt8J-5" target="AipJWibaRMQgxZIMEt8J-5" edge="1">
          <mxGeometry width="50" height="50" relative="1" as="geometry">
            <mxPoint x="660" y="280" as="sourcePoint" />
            <mxPoint x="680" y="190" as="targetPoint" />
          </mxGeometry>
        </mxCell>
        <mxCell id="AipJWibaRMQgxZIMEt8J-7" value="" style="endArrow=classic;html=1;rounded=0;entryX=0.083;entryY=0.25;entryDx=0;entryDy=0;entryPerimeter=0;exitX=1;exitY=0.5;exitDx=0;exitDy=0;" parent="1" source="AipJWibaRMQgxZIMEt8J-1" target="AipJWibaRMQgxZIMEt8J-4" edge="1">
          <mxGeometry width="50" height="50" relative="1" as="geometry">
            <mxPoint x="400" y="260" as="sourcePoint" />
            <mxPoint x="450" y="210" as="targetPoint" />
          </mxGeometry>
        </mxCell>
        <mxCell id="AipJWibaRMQgxZIMEt8J-8" value="" style="endArrow=classic;html=1;rounded=0;exitX=1;exitY=0.5;exitDx=0;exitDy=0;entryX=0;entryY=0.5;entryDx=0;entryDy=0;entryPerimeter=0;" parent="1" source="AipJWibaRMQgxZIMEt8J-2" target="AipJWibaRMQgxZIMEt8J-4" edge="1">
          <mxGeometry width="50" height="50" relative="1" as="geometry">
            <mxPoint x="330" y="220" as="sourcePoint" />
            <mxPoint x="444" y="253" as="targetPoint" />
          </mxGeometry>
        </mxCell>
        <mxCell id="AipJWibaRMQgxZIMEt8J-9" value="" style="endArrow=classic;html=1;rounded=0;entryX=0.083;entryY=0.825;entryDx=0;entryDy=0;entryPerimeter=0;exitX=1;exitY=0.5;exitDx=0;exitDy=0;" parent="1" source="AipJWibaRMQgxZIMEt8J-3" target="AipJWibaRMQgxZIMEt8J-4" edge="1">
          <mxGeometry width="50" height="50" relative="1" as="geometry">
            <mxPoint x="360" y="180" as="sourcePoint" />
            <mxPoint x="470" y="240" as="targetPoint" />
          </mxGeometry>
        </mxCell>
        <mxCell id="AipJWibaRMQgxZIMEt8J-10" value="" style="endArrow=classic;html=1;rounded=0;entryX=1;entryY=0.75;entryDx=0;entryDy=0;exitX=-0.008;exitY=0.65;exitDx=0;exitDy=0;exitPerimeter=0;" parent="1" source="AipJWibaRMQgxZIMEt8J-4" target="AipJWibaRMQgxZIMEt8J-2" edge="1">
          <mxGeometry width="50" height="50" relative="1" as="geometry">
            <mxPoint x="430" y="250" as="sourcePoint" />
            <mxPoint x="450" y="210" as="targetPoint" />
          </mxGeometry>
        </mxCell>
        <mxCell id="AipJWibaRMQgxZIMEt8J-11" value="" style="endArrow=classic;html=1;rounded=0;entryX=1;entryY=0.75;entryDx=0;entryDy=0;exitX=0;exitY=1;exitDx=0;exitDy=0;" parent="1" source="AipJWibaRMQgxZIMEt8J-4" target="AipJWibaRMQgxZIMEt8J-3" edge="1">
          <mxGeometry width="50" height="50" relative="1" as="geometry">
            <mxPoint x="449" y="262" as="sourcePoint" />
            <mxPoint x="350" y="265" as="targetPoint" />
          </mxGeometry>
        </mxCell>
        <mxCell id="AipJWibaRMQgxZIMEt8J-12" value="" style="endArrow=classic;html=1;rounded=0;entryX=1;entryY=0.75;entryDx=0;entryDy=0;exitX=0.017;exitY=0.388;exitDx=0;exitDy=0;exitPerimeter=0;" parent="1" source="AipJWibaRMQgxZIMEt8J-4" target="AipJWibaRMQgxZIMEt8J-1" edge="1">
          <mxGeometry width="50" height="50" relative="1" as="geometry">
            <mxPoint x="449" y="262" as="sourcePoint" />
            <mxPoint x="350" y="265" as="targetPoint" />
          </mxGeometry>
        </mxCell>
        <mxCell id="AipJWibaRMQgxZIMEt8J-13" value="" style="endArrow=classic;html=1;rounded=0;entryX=0;entryY=0.5;entryDx=0;entryDy=0;exitX=1;exitY=0.5;exitDx=0;exitDy=0;" parent="1" source="AipJWibaRMQgxZIMEt8J-4" target="AipJWibaRMQgxZIMEt8J-5" edge="1">
          <mxGeometry width="50" height="50" relative="1" as="geometry">
            <mxPoint x="400" y="260" as="sourcePoint" />
            <mxPoint x="450" y="210" as="targetPoint" />
          </mxGeometry>
        </mxCell>
      </root>
    </mxGraphModel>
  </diagram>
  <diagram id="WuDh6Tz8KAjHdvu5zkaa" name="Page-2">
    <mxGraphModel dx="880" dy="446" grid="1" gridSize="10" guides="1" tooltips="1" connect="1" arrows="1" fold="1" page="1" pageScale="1" pageWidth="850" pageHeight="1100" math="0" shadow="0">
      <root>
        <mxCell id="0" />
        <mxCell id="1" parent="0" />
        <mxCell id="ueevhetUxdWHvg3zMm_Z-6" style="edgeStyle=orthogonalEdgeStyle;rounded=0;orthogonalLoop=1;jettySize=auto;html=1;exitX=1;exitY=0.5;exitDx=0;exitDy=0;entryX=0;entryY=0.5;entryDx=0;entryDy=0;" parent="1" source="ueevhetUxdWHvg3zMm_Z-1" target="ueevhetUxdWHvg3zMm_Z-2" edge="1">
          <mxGeometry relative="1" as="geometry" />
        </mxCell>
        <mxCell id="ueevhetUxdWHvg3zMm_Z-1" value="Mechanic" style="rounded=0;whiteSpace=wrap;html=1;" parent="1" vertex="1">
          <mxGeometry y="50" width="120" height="60" as="geometry" />
        </mxCell>
        <mxCell id="ueevhetUxdWHvg3zMm_Z-5" style="edgeStyle=orthogonalEdgeStyle;rounded=0;orthogonalLoop=1;jettySize=auto;html=1;exitX=1;exitY=0.5;exitDx=0;exitDy=0;" parent="1" source="ueevhetUxdWHvg3zMm_Z-2" target="ueevhetUxdWHvg3zMm_Z-3" edge="1">
          <mxGeometry relative="1" as="geometry" />
        </mxCell>
        <mxCell id="ueevhetUxdWHvg3zMm_Z-2" value="Login/Register" style="ellipse;whiteSpace=wrap;html=1;" parent="1" vertex="1">
          <mxGeometry x="240" y="40" width="120" height="80" as="geometry" />
        </mxCell>
        <mxCell id="ueevhetUxdWHvg3zMm_Z-3" value="Mechanic DB" style="rounded=0;whiteSpace=wrap;html=1;" parent="1" vertex="1">
          <mxGeometry x="510" y="50" width="120" height="60" as="geometry" />
        </mxCell>
        <mxCell id="ueevhetUxdWHvg3zMm_Z-4" value="" style="endArrow=none;html=1;rounded=0;entryX=0.133;entryY=0.05;entryDx=0;entryDy=0;entryPerimeter=0;" parent="1" target="ueevhetUxdWHvg3zMm_Z-3" edge="1">
          <mxGeometry width="50" height="50" relative="1" as="geometry">
            <mxPoint x="526" y="110" as="sourcePoint" />
            <mxPoint x="450" y="210" as="targetPoint" />
          </mxGeometry>
        </mxCell>
        <mxCell id="UosgR6HcYZ-gZ1cxL5z3-31" style="edgeStyle=orthogonalEdgeStyle;rounded=0;orthogonalLoop=1;jettySize=auto;html=1;exitX=1;exitY=0.5;exitDx=0;exitDy=0;entryX=0.5;entryY=1;entryDx=0;entryDy=0;" parent="1" source="ueevhetUxdWHvg3zMm_Z-9" target="ueevhetUxdWHvg3zMm_Z-3" edge="1">
          <mxGeometry relative="1" as="geometry" />
        </mxCell>
        <mxCell id="ueevhetUxdWHvg3zMm_Z-9" value="Edit&amp;nbsp; profile" style="ellipse;whiteSpace=wrap;html=1;" parent="1" vertex="1">
          <mxGeometry x="380" y="190" width="120" height="80" as="geometry" />
        </mxCell>
        <mxCell id="ueevhetUxdWHvg3zMm_Z-10" value="" style="endArrow=none;html=1;rounded=0;entryX=0.5;entryY=1;entryDx=0;entryDy=0;" parent="1" target="ueevhetUxdWHvg3zMm_Z-2" edge="1">
          <mxGeometry width="50" height="50" relative="1" as="geometry">
            <mxPoint x="300" y="1000" as="sourcePoint" />
            <mxPoint x="450" y="210" as="targetPoint" />
          </mxGeometry>
        </mxCell>
        <mxCell id="ueevhetUxdWHvg3zMm_Z-12" value="" style="endArrow=classic;html=1;rounded=0;entryX=0;entryY=0.5;entryDx=0;entryDy=0;" parent="1" target="ueevhetUxdWHvg3zMm_Z-9" edge="1">
          <mxGeometry width="50" height="50" relative="1" as="geometry">
            <mxPoint x="300" y="230" as="sourcePoint" />
            <mxPoint x="450" y="210" as="targetPoint" />
          </mxGeometry>
        </mxCell>
        <mxCell id="UosgR6HcYZ-gZ1cxL5z3-32" style="edgeStyle=orthogonalEdgeStyle;rounded=0;orthogonalLoop=1;jettySize=auto;html=1;exitX=1;exitY=0.5;exitDx=0;exitDy=0;" parent="1" source="UosgR6HcYZ-gZ1cxL5z3-4" edge="1">
          <mxGeometry relative="1" as="geometry">
            <mxPoint x="570" y="110" as="targetPoint" />
          </mxGeometry>
        </mxCell>
        <mxCell id="UosgR6HcYZ-gZ1cxL5z3-4" value="Add, view and&lt;br&gt;&amp;nbsp;edit services" style="ellipse;whiteSpace=wrap;html=1;" parent="1" vertex="1">
          <mxGeometry x="390" y="280" width="120" height="80" as="geometry" />
        </mxCell>
        <mxCell id="UosgR6HcYZ-gZ1cxL5z3-7" value="" style="endArrow=classic;html=1;rounded=0;" parent="1" target="UosgR6HcYZ-gZ1cxL5z3-4" edge="1">
          <mxGeometry width="50" height="50" relative="1" as="geometry">
            <mxPoint x="300" y="320" as="sourcePoint" />
            <mxPoint x="388" y="322" as="targetPoint" />
          </mxGeometry>
        </mxCell>
        <mxCell id="UosgR6HcYZ-gZ1cxL5z3-13" value="" style="endArrow=classic;html=1;rounded=0;" parent="1" target="UosgR6HcYZ-gZ1cxL5z3-14" edge="1">
          <mxGeometry width="50" height="50" relative="1" as="geometry">
            <mxPoint x="300" y="410" as="sourcePoint" />
            <mxPoint x="388" y="412" as="targetPoint" />
          </mxGeometry>
        </mxCell>
        <mxCell id="UosgR6HcYZ-gZ1cxL5z3-33" style="edgeStyle=orthogonalEdgeStyle;rounded=0;orthogonalLoop=1;jettySize=auto;html=1;exitX=1;exitY=0.5;exitDx=0;exitDy=0;" parent="1" source="UosgR6HcYZ-gZ1cxL5z3-14" edge="1">
          <mxGeometry relative="1" as="geometry">
            <mxPoint x="570" y="320" as="targetPoint" />
          </mxGeometry>
        </mxCell>
        <mxCell id="UosgR6HcYZ-gZ1cxL5z3-14" value="View Request from Users" style="ellipse;whiteSpace=wrap;html=1;" parent="1" vertex="1">
          <mxGeometry x="390" y="370" width="120" height="80" as="geometry" />
        </mxCell>
        <mxCell id="UosgR6HcYZ-gZ1cxL5z3-34" style="edgeStyle=orthogonalEdgeStyle;rounded=0;orthogonalLoop=1;jettySize=auto;html=1;exitX=1;exitY=0.5;exitDx=0;exitDy=0;" parent="1" source="UosgR6HcYZ-gZ1cxL5z3-15" edge="1">
          <mxGeometry relative="1" as="geometry">
            <mxPoint x="570" y="410" as="targetPoint" />
          </mxGeometry>
        </mxCell>
        <mxCell id="UosgR6HcYZ-gZ1cxL5z3-15" value="View Request from Users" style="ellipse;whiteSpace=wrap;html=1;" parent="1" vertex="1">
          <mxGeometry x="390" y="480" width="120" height="80" as="geometry" />
        </mxCell>
        <mxCell id="UosgR6HcYZ-gZ1cxL5z3-16" value="" style="endArrow=classic;html=1;rounded=0;" parent="1" target="UosgR6HcYZ-gZ1cxL5z3-15" edge="1">
          <mxGeometry width="50" height="50" relative="1" as="geometry">
            <mxPoint x="300" y="520" as="sourcePoint" />
            <mxPoint x="388" y="522" as="targetPoint" />
          </mxGeometry>
        </mxCell>
        <mxCell id="UosgR6HcYZ-gZ1cxL5z3-36" style="edgeStyle=orthogonalEdgeStyle;rounded=0;orthogonalLoop=1;jettySize=auto;html=1;exitX=1;exitY=0.5;exitDx=0;exitDy=0;entryX=0.5;entryY=1;entryDx=0;entryDy=0;" parent="1" source="UosgR6HcYZ-gZ1cxL5z3-17" target="UosgR6HcYZ-gZ1cxL5z3-35" edge="1">
          <mxGeometry relative="1" as="geometry" />
        </mxCell>
        <mxCell id="UosgR6HcYZ-gZ1cxL5z3-17" value="Track User" style="ellipse;whiteSpace=wrap;html=1;" parent="1" vertex="1">
          <mxGeometry x="390" y="590" width="120" height="80" as="geometry" />
        </mxCell>
        <mxCell id="UosgR6HcYZ-gZ1cxL5z3-18" value="" style="endArrow=classic;html=1;rounded=0;" parent="1" target="UosgR6HcYZ-gZ1cxL5z3-17" edge="1">
          <mxGeometry width="50" height="50" relative="1" as="geometry">
            <mxPoint x="300" y="630" as="sourcePoint" />
            <mxPoint x="388" y="632" as="targetPoint" />
          </mxGeometry>
        </mxCell>
        <mxCell id="UosgR6HcYZ-gZ1cxL5z3-19" value="" style="endArrow=classic;html=1;rounded=0;" parent="1" target="UosgR6HcYZ-gZ1cxL5z3-20" edge="1">
          <mxGeometry width="50" height="50" relative="1" as="geometry">
            <mxPoint x="300" y="720" as="sourcePoint" />
            <mxPoint x="388" y="722" as="targetPoint" />
          </mxGeometry>
        </mxCell>
        <mxCell id="UosgR6HcYZ-gZ1cxL5z3-38" style="edgeStyle=orthogonalEdgeStyle;rounded=0;orthogonalLoop=1;jettySize=auto;html=1;exitX=1;exitY=0.5;exitDx=0;exitDy=0;entryX=0.5;entryY=1;entryDx=0;entryDy=0;" parent="1" source="UosgR6HcYZ-gZ1cxL5z3-20" target="UosgR6HcYZ-gZ1cxL5z3-37" edge="1">
          <mxGeometry relative="1" as="geometry" />
        </mxCell>
        <mxCell id="UosgR6HcYZ-gZ1cxL5z3-20" value="Add Bill:&lt;br/&gt;" style="ellipse;whiteSpace=wrap;html=1;" parent="1" vertex="1">
          <mxGeometry x="390" y="680" width="120" height="80" as="geometry" />
        </mxCell>
        <mxCell id="UosgR6HcYZ-gZ1cxL5z3-23" value="" style="endArrow=classic;html=1;rounded=0;" parent="1" target="UosgR6HcYZ-gZ1cxL5z3-24" edge="1">
          <mxGeometry width="50" height="50" relative="1" as="geometry">
            <mxPoint x="300" y="810" as="sourcePoint" />
            <mxPoint x="388" y="812" as="targetPoint" />
          </mxGeometry>
        </mxCell>
        <mxCell id="UosgR6HcYZ-gZ1cxL5z3-39" style="edgeStyle=orthogonalEdgeStyle;rounded=0;orthogonalLoop=1;jettySize=auto;html=1;exitX=1;exitY=0.5;exitDx=0;exitDy=0;entryX=0.5;entryY=1;entryDx=0;entryDy=0;" parent="1" source="UosgR6HcYZ-gZ1cxL5z3-24" target="UosgR6HcYZ-gZ1cxL5z3-37" edge="1">
          <mxGeometry relative="1" as="geometry" />
        </mxCell>
        <mxCell id="UosgR6HcYZ-gZ1cxL5z3-24" value="View Payment:" style="ellipse;whiteSpace=wrap;html=1;" parent="1" vertex="1">
          <mxGeometry x="390" y="770" width="120" height="80" as="geometry" />
        </mxCell>
        <mxCell id="UosgR6HcYZ-gZ1cxL5z3-25" value="" style="endArrow=classic;html=1;rounded=0;" parent="1" target="UosgR6HcYZ-gZ1cxL5z3-26" edge="1">
          <mxGeometry width="50" height="50" relative="1" as="geometry">
            <mxPoint x="300" y="910" as="sourcePoint" />
            <mxPoint x="388" y="912" as="targetPoint" />
          </mxGeometry>
        </mxCell>
        <mxCell id="UosgR6HcYZ-gZ1cxL5z3-40" style="edgeStyle=orthogonalEdgeStyle;rounded=0;orthogonalLoop=1;jettySize=auto;html=1;exitX=1;exitY=0.5;exitDx=0;exitDy=0;" parent="1" source="UosgR6HcYZ-gZ1cxL5z3-26" edge="1">
          <mxGeometry relative="1" as="geometry">
            <mxPoint x="950" y="110" as="targetPoint" />
          </mxGeometry>
        </mxCell>
        <mxCell id="UosgR6HcYZ-gZ1cxL5z3-26" value="View Rating" style="ellipse;whiteSpace=wrap;html=1;" parent="1" vertex="1">
          <mxGeometry x="390" y="870" width="120" height="80" as="geometry" />
        </mxCell>
        <mxCell id="UosgR6HcYZ-gZ1cxL5z3-35" value="User" style="shape=process;whiteSpace=wrap;html=1;backgroundOutline=1;" parent="1" vertex="1">
          <mxGeometry x="640" y="52" width="120" height="60" as="geometry" />
        </mxCell>
        <mxCell id="UosgR6HcYZ-gZ1cxL5z3-37" value="Payment" style="shape=process;whiteSpace=wrap;html=1;backgroundOutline=1;" parent="1" vertex="1">
          <mxGeometry x="770" y="52" width="120" height="60" as="geometry" />
        </mxCell>
        <mxCell id="UosgR6HcYZ-gZ1cxL5z3-41" value="Content" style="shape=process;whiteSpace=wrap;html=1;backgroundOutline=1;" parent="1" vertex="1">
          <mxGeometry x="900" y="50" width="120" height="60" as="geometry" />
        </mxCell>
        <mxCell id="7OMpqEDlXIJBwvR4Hf_X-5" style="edgeStyle=orthogonalEdgeStyle;rounded=0;orthogonalLoop=1;jettySize=auto;html=1;exitX=0.5;exitY=1;exitDx=0;exitDy=0;" edge="1" parent="1" source="7OMpqEDlXIJBwvR4Hf_X-1">
          <mxGeometry relative="1" as="geometry">
            <mxPoint x="190" y="80" as="targetPoint" />
          </mxGeometry>
        </mxCell>
        <mxCell id="7OMpqEDlXIJBwvR4Hf_X-1" value="Sign out" style="ellipse;whiteSpace=wrap;html=1;" vertex="1" parent="1">
          <mxGeometry x="390" y="960" width="120" height="80" as="geometry" />
        </mxCell>
        <mxCell id="7OMpqEDlXIJBwvR4Hf_X-2" value="" style="endArrow=classic;html=1;rounded=0;" edge="1" target="7OMpqEDlXIJBwvR4Hf_X-1" parent="1">
          <mxGeometry width="50" height="50" relative="1" as="geometry">
            <mxPoint x="300" y="1000" as="sourcePoint" />
            <mxPoint x="388" y="1002" as="targetPoint" />
          </mxGeometry>
        </mxCell>
      </root>
    </mxGraphModel>
  </diagram>
</mxfile>
